<?xml version="1.0" encoding="UTF-8" standalone="no"?>
<!-- Generator: Adobe Illustrator 18.0.0, SVG Export Plug-In . SVG Version: 6.00 Build 0)  -->

<svg
   xmlns:dc="http://purl.org/dc/elements/1.1/"
   xmlns:cc="http://creativecommons.org/ns#"
   xmlns:rdf="http://www.w3.org/1999/02/22-rdf-syntax-ns#"
   xmlns:svg="http://www.w3.org/2000/svg"
   xmlns="http://www.w3.org/2000/svg"
   xmlns:sodipodi="http://sodipodi.sourceforge.net/DTD/sodipodi-0.dtd"
   xmlns:inkscape="http://www.inkscape.org/namespaces/inkscape"
   version="1.1"
   id="Capa_1"
   x="0px"
   y="0px"
   viewBox="0 0 290.26301 231.683"
   xml:space="preserve"
   inkscape:version="0.91 r13725"
   sodipodi:docname="1080p.svg"
   width="290.263"
   height="231.683"><metadata
     id="metadata50"><rdf:RDF><cc:Work
         rdf:about=""><dc:format>image/svg+xml</dc:format><dc:type
           rdf:resource="http://purl.org/dc/dcmitype/StillImage" /><dc:title /></cc:Work></rdf:RDF></metadata><defs
     id="defs48" /><sodipodi:namedview
     pagecolor="#ffffff"
     bordercolor="#666666"
     borderopacity="1"
     objecttolerance="10"
     gridtolerance="10"
     guidetolerance="10"
     inkscape:pageopacity="0"
     inkscape:pageshadow="2"
     inkscape:window-width="640"
     inkscape:window-height="480"
     id="namedview46"
     showgrid="false"
     fit-margin-top="0"
     fit-margin-left="0"
     fit-margin-right="0"
     fit-margin-bottom="0"
     inkscape:zoom="0.57491923"
     inkscape:cx="183.00466"
     inkscape:cy="63.033374"
     inkscape:window-x="57"
     inkscape:window-y="34"
     inkscape:window-maximized="0"
     inkscape:current-layer="Capa_1" /><g
     id="_x34_2-_1080_Full_HD"
     transform="translate(0,-29.29)"><path
       d="m 278.743,29.29 -267.224,0 C 5.157,29.29 0,34.447 0,40.809 l 0,128.645 0,11.355 0,68.645 c 0,6.361 5.157,11.519 11.519,11.519 l 267.225,0 c 6.361,0 11.519,-5.157 11.519,-11.519 l 0,-68.645 0,-11.355 0,-128.645 C 290.262,34.447 285.104,29.29 278.743,29.29 Z m -222.18,156.669 -22.812,0 0,15.375 20.439,0 0,4.813 -20.439,0 0,18.748 -4.996,0 0,-43.748 27.809,0 0,4.812 z m 43.127,20.936 c 0,11.375 -6.875,18.252 -18.313,18.252 -11.5,0 -18.436,-6.877 -18.436,-18.252 l 0,-25.748 5,0 0,25.748 c 0,8.5 5.122,13.439 13.436,13.439 8.313,0 13.313,-4.939 13.313,-13.439 l 0,-25.748 5,0 0,25.748 z m 36.44,18 -24.188,0 0,-43.748 5,0 0,39.002 19.188,0 0,4.746 z m 32.314,0 -24.187,0 0,-43.748 4.998,0 0,39.002 19.189,0 0,4.746 z m 46.249,0 -11.126,0 0,-16.998 -18.121,0 0,16.998 -11.127,0 0,-43.748 11.127,0 0,18 18.121,0 0,-18 11.126,0 0,43.748 z m 27.129,0 -18.376,0 0,-25.201 11.125,0 0,16.33 7.939,0 c 6.811,0 11.688,-5.254 11.688,-12.939 0,-7.754 -5.126,-13.063 -12.189,-13.063 l -18.563,0 0,-8.875 18.813,0 c 13.75,0 23.248,8.875 23.248,21.873 0,12.937 -9.625,21.875 -23.685,21.875 z m 25.403,-66.96 -244.188,0 0,-105.608 244.188,0 0,105.608 z"
       id="path4"
       inkscape:connector-curvature="0"
       style="fill:#ffffff" /><polygon
       points="43.866,76.775 43.866,87.363 53.415,87.363 53.415,128.666 66.592,128.666 66.592,76.775 "
       id="polygon6"
       style="fill:#ffffff" /><path
       d="m 99.901,129.037 c 14.656,0 22.873,-9.404 22.873,-26.354 0,-16.877 -8.217,-26.279 -22.873,-26.279 -14.805,0 -23.021,9.402 -23.021,26.279 0,16.95 8.217,26.354 23.021,26.354 z m 0,-43.008 c 6.514,0 9.4,4.813 9.4,16.654 0,11.841 -2.887,16.729 -9.4,16.729 -6.664,0 -9.475,-4.887 -9.475,-16.729 0,-11.842 2.811,-16.654 9.475,-16.654 z"
       id="path8"
       inkscape:connector-curvature="0"
       style="fill:#ffffff" /><path
       d="m 128.401,114.232 c 0,9.178 8.29,15.025 21.246,15.025 12.951,0 21.243,-5.922 21.243,-15.25 0,-5.771 -3.552,-10.732 -9.253,-13.102 4.072,-2.221 6.514,-6.217 6.514,-10.734 0,-8.512 -7.18,-13.914 -18.58,-13.914 -11.25,0 -18.505,5.258 -18.505,13.549 0,4.512 2.814,8.656 7.18,11.1 -5.995,2.369 -9.845,7.401 -9.845,13.326 z m 21.246,-29.314 c 4.811,0 7.475,2.148 7.475,5.994 0,3.703 -2.664,5.777 -7.475,5.777 -4.813,0 -7.477,-2.074 -7.477,-5.777 0,-3.846 2.665,-5.994 7.477,-5.994 z m 0,21.246 c 5.697,0 8.881,2.441 8.881,6.736 0,4.441 -3.184,6.811 -8.881,6.811 -5.701,0 -8.809,-2.445 -8.809,-6.811 0.001,-4.295 3.108,-6.736 8.809,-6.736 z"
       id="path10"
       inkscape:connector-curvature="0"
       style="fill:#ffffff" /><path
       d="m 199.466,129.037 c 14.655,0 22.872,-9.404 22.872,-26.354 0,-16.877 -8.217,-26.279 -22.872,-26.279 -14.805,0 -23.023,9.402 -23.023,26.279 0,16.95 8.218,26.354 23.023,26.354 z m 0,-43.008 c 6.514,0 9.398,4.813 9.398,16.654 0,11.841 -2.885,16.729 -9.398,16.729 -6.662,0 -9.475,-4.887 -9.475,-16.729 0,-11.842 2.813,-16.654 9.475,-16.654 z"
       id="path12"
       inkscape:connector-curvature="0"
       style="fill:#ffffff" /><path
       d="m 234.948,121.119 4.865,0 c 6.857,0 10.803,-3.641 10.803,-9.924 0,-5.973 -3.945,-9.346 -10.803,-9.346 l -11.682,0 0,26.816 6.816,0 0,-7.546 z m 0,-13.906 4.521,0 c 2.987,0 4.712,1.414 4.712,4.217 0,2.832 -1.725,4.326 -4.712,4.326 l -4.521,0 0,-8.543 z"
       id="path14"
       inkscape:connector-curvature="0"
       style="fill:#ffffff" /></g><g
     id="g16"
     transform="translate(0,-29.29)" /><g
     id="g18"
     transform="translate(0,-29.29)" /><g
     id="g20"
     transform="translate(0,-29.29)" /><g
     id="g22"
     transform="translate(0,-29.29)" /><g
     id="g24"
     transform="translate(0,-29.29)" /><g
     id="g26"
     transform="translate(0,-29.29)" /><g
     id="g28"
     transform="translate(0,-29.29)" /><g
     id="g30"
     transform="translate(0,-29.29)" /><g
     id="g32"
     transform="translate(0,-29.29)" /><g
     id="g34"
     transform="translate(0,-29.29)" /><g
     id="g36"
     transform="translate(0,-29.29)" /><g
     id="g38"
     transform="translate(0,-29.29)" /><g
     id="g40"
     transform="translate(0,-29.29)" /><g
     id="g42"
     transform="translate(0,-29.29)" /><g
     id="g44"
     transform="translate(0,-29.29)" /></svg>