<?xml version="1.0" encoding="UTF-8" standalone="no"?>
<!-- Generator: Adobe Illustrator 18.0.0, SVG Export Plug-In . SVG Version: 6.00 Build 0)  -->

<svg
   xmlns:dc="http://purl.org/dc/elements/1.1/"
   xmlns:cc="http://creativecommons.org/ns#"
   xmlns:rdf="http://www.w3.org/1999/02/22-rdf-syntax-ns#"
   xmlns:svg="http://www.w3.org/2000/svg"
   xmlns="http://www.w3.org/2000/svg"
   xmlns:sodipodi="http://sodipodi.sourceforge.net/DTD/sodipodi-0.dtd"
   xmlns:inkscape="http://www.inkscape.org/namespaces/inkscape"
   version="1.1"
   id="Capa_1"
   x="0px"
   y="0px"
   viewBox="0 0 448 512"
   xml:space="preserve"
   inkscape:version="0.91 r13725"
   sodipodi:docname="flac.svg"
   width="448"
   height="512"><metadata
     id="metadata49"><rdf:RDF><cc:Work
         rdf:about=""><dc:format>image/svg+xml</dc:format><dc:type
           rdf:resource="http://purl.org/dc/dcmitype/StillImage" /><dc:title /></cc:Work></rdf:RDF></metadata><defs
     id="defs47" /><sodipodi:namedview
     pagecolor="#ffffff"
     bordercolor="#666666"
     borderopacity="1"
     objecttolerance="10"
     gridtolerance="10"
     guidetolerance="10"
     inkscape:pageopacity="0"
     inkscape:pageshadow="2"
     inkscape:window-width="640"
     inkscape:window-height="480"
     id="namedview45"
     showgrid="false"
     fit-margin-top="0"
     fit-margin-left="0"
     fit-margin-right="0"
     fit-margin-bottom="0"
     inkscape:zoom="0.4609375"
     inkscape:cx="224"
     inkscape:cy="256"
     inkscape:window-x="57"
     inkscape:window-y="34"
     inkscape:window-maximized="0"
     inkscape:current-layer="Capa_1" /><g
     id="g3"
     transform="translate(-32,0)"
     style="fill:#ffffff"><path
       d="m 64,96 c -17.672,0 -32,14.326 -32,32 l 0,256 c 0,17.672 14.328,32 32,32 17.672,0 32,-14.328 32,-32 L 96,128 C 96,110.326 81.672,96 64,96 Z"
       id="path5"
       inkscape:connector-curvature="0"
       style="fill:#ffffff" /><path
       d="m 160,160 c -17.672,0 -32,14.326 -32,32 l 0,128 c 0,17.672 14.328,32 32,32 17.672,0 32,-14.328 32,-32 l 0,-128 c 0,-17.674 -14.328,-32 -32,-32 z"
       id="path7"
       inkscape:connector-curvature="0"
       style="fill:#ffffff" /><path
       d="m 256,0 c -17.672,0 -32,14.326 -32,32 l 0,448 c 0,17.672 14.328,32 32,32 17.672,0 32,-14.328 32,-32 L 288,32 C 288,14.326 273.672,0 256,0 Z"
       id="path9"
       inkscape:connector-curvature="0"
       style="fill:#ffffff" /><path
       d="m 352,80 c -17.672,0 -32,14.326 -32,32 l 0,288 c 0,17.672 14.328,32 32,32 17.672,0 32,-14.328 32,-32 l 0,-288 C 384,94.326 369.672,80 352,80 Z"
       id="path11"
       inkscape:connector-curvature="0"
       style="fill:#ffffff" /><path
       d="m 448,160 c -17.672,0 -32,14.326 -32,32 l 0,128 c 0,17.672 14.328,32 32,32 17.672,0 32,-14.328 32,-32 l 0,-128 c 0,-17.674 -14.328,-32 -32,-32 z"
       id="path13"
       inkscape:connector-curvature="0"
       style="fill:#ffffff" /></g><g
     id="g15"
     transform="translate(-32,0)" /><g
     id="g17"
     transform="translate(-32,0)" /><g
     id="g19"
     transform="translate(-32,0)" /><g
     id="g21"
     transform="translate(-32,0)" /><g
     id="g23"
     transform="translate(-32,0)" /><g
     id="g25"
     transform="translate(-32,0)" /><g
     id="g27"
     transform="translate(-32,0)" /><g
     id="g29"
     transform="translate(-32,0)" /><g
     id="g31"
     transform="translate(-32,0)" /><g
     id="g33"
     transform="translate(-32,0)" /><g
     id="g35"
     transform="translate(-32,0)" /><g
     id="g37"
     transform="translate(-32,0)" /><g
     id="g39"
     transform="translate(-32,0)" /><g
     id="g41"
     transform="translate(-32,0)" /><g
     id="g43"
     transform="translate(-32,0)" /></svg>