<?xml version="1.0" encoding="UTF-8" standalone="no"?>
<!-- Generator: Adobe Illustrator 19.0.0, SVG Export Plug-In . SVG Version: 6.00 Build 0)  -->

<svg
   xmlns:dc="http://purl.org/dc/elements/1.1/"
   xmlns:cc="http://creativecommons.org/ns#"
   xmlns:rdf="http://www.w3.org/1999/02/22-rdf-syntax-ns#"
   xmlns:svg="http://www.w3.org/2000/svg"
   xmlns="http://www.w3.org/2000/svg"
   xmlns:sodipodi="http://sodipodi.sourceforge.net/DTD/sodipodi-0.dtd"
   xmlns:inkscape="http://www.inkscape.org/namespaces/inkscape"
   version="1.1"
   id="Capa_1"
   x="0px"
   y="0px"
   viewBox="0 0 58.188676 40.347676"
   xml:space="preserve"
   inkscape:version="0.91 r13725"
   sodipodi:docname="gaming.svg"
   width="58.188675"
   height="40.347675"><metadata
     id="metadata55"><rdf:RDF><cc:Work
         rdf:about=""><dc:format>image/svg+xml</dc:format><dc:type
           rdf:resource="http://purl.org/dc/dcmitype/StillImage" /><dc:title /></cc:Work></rdf:RDF></metadata><defs
     id="defs53" /><sodipodi:namedview
     pagecolor="#ffffff"
     bordercolor="#666666"
     borderopacity="1"
     objecttolerance="10"
     gridtolerance="10"
     guidetolerance="10"
     inkscape:pageopacity="0"
     inkscape:pageshadow="2"
     inkscape:window-width="480"
     inkscape:window-height="373"
     id="namedview51"
     showgrid="false"
     fit-margin-top="0"
     fit-margin-left="0"
     fit-margin-right="0"
     fit-margin-bottom="0"
     inkscape:zoom="4.0557494"
     inkscape:cx="29.094111"
     inkscape:cy="20.174088"
     inkscape:window-x="47"
     inkscape:window-y="367"
     inkscape:window-maximized="0"
     inkscape:current-layer="Capa_1" /><path
     style="fill:#ffffff"
     d="m 17.319924,0.01463373 c -0.174031,0.019813 -0.345671,0.059844 -0.513671,0.1210937 L 9.1304712,2.9267428 c -0.486,0.177 -0.8849531,2.656281 -1.1269532,3.113282 -2.283,4.3059992 -13.8006874,28.0232032 -4.3046874,34.0332032 0.6799999,0.43 1.5735937,0.341359 2.1835937,-0.181641 l 9.1289067,-7.828125 c 1.292,-1.107 2.935719,-1.716797 4.636719,-1.716797 l 9.447265,0 9.445313,0 c 1.701,0 3.346671,0.609797 4.638672,1.716797 l 9.126953,7.828125 c 0.611,0.524 1.504593,0.612641 2.183593,0.181641 9.496,-6.01 -2.021687,-29.727203 -4.304687,-34.0332032 -0.242,-0.457001 -0.64,-2.936282 -1.125,-3.113282 L 41.384378,0.13572743 c -0.673,-0.245 -1.422578,-0.1548125 -2.017578,0.2421875 0,0 -2.163438,1.38281287 -2.648438,1.38281287 l -5.201172,0 c 0.104,0.131 0.179844,0.28775 0.214844,0.46875 0.035,0.181 0.05273,0.3705 0.05273,0.5625 0,1.83 -1.63639,3.277078 -3.52539,2.955078 -1.179,-0.201 -2.156297,-1.144453 -2.404297,-2.314453 -0.094,-0.444 -0.087,-0.873485 0,-1.271485 0.034,-0.155 0.103406,-0.28639 0.191406,-0.40039 l -4.302734,0 c -0.485,0 -2.921875,-1.38281287 -2.921875,-1.38281287 -0.447,-0.29775 -0.97986,-0.4227187 -1.501954,-0.3632812 z M 28.534768,1.7607278 c 0.084,0.008 0.164953,0.03125 0.251953,0.03125 0.086,0 0.165,-0.02425 0.25,-0.03125 l -0.501953,0 z m 15.25,3.585937 a 2,2 0 0 1 2,2 2,2 0 0 1 -2,2 2,2 0 0 1 -2,-2 2,2 0 0 1 2,-2 z m -30,2 a 4,4 0 0 1 4,4.0000002 4,4 0 0 1 -4,4 4,4 0 0 1 -4,-4 4,4 0 0 1 4,-4.0000002 z m 26,2 a 2,2 0 0 1 2,2.0000002 2,2 0 0 1 -2,2 2,2 0 0 1 -2,-2 2,2 0 0 1 2,-2.0000002 z m 8,0 a 2,2 0 0 1 2,2.0000002 2,2 0 0 1 -2,2 2,2 0 0 1 -2,-2 2,2 0 0 1 2,-2.0000002 z m -4,4.0000002 a 2,2 0 0 1 2,2 2,2 0 0 1 -2,2 2,2 0 0 1 -2,-2 2,2 0 0 1 2,-2 z m -23.070312,1.654297 2.570312,0 c 0.394,0 0.714844,0.317891 0.714844,0.712891 l 0,3.287109 3.285156,0 c 0.394,0 0.713891,0.318891 0.712891,0.712891 l 0,2.570312 c 0,0.394 -0.317891,0.714844 -0.712891,0.714844 l -3.287109,0 0,3.285156 c 0,0.394 -0.317891,0.714844 -0.712891,0.714844 l -2.570312,0 c -0.394,0 -0.714844,-0.319844 -0.714844,-0.714844 l 0,-3.285156 -3.285156,0 c -0.394,0 -0.712891,-0.319844 -0.712891,-0.714844 l 0,-2.570312 c 0,-0.394 0.317891,-0.712891 0.712891,-0.712891 l 3.287109,0 0,-3.287109 c 0,-0.394 0.317891,-0.712891 0.712891,-0.712891 z m 16.070312,2.345703 a 4,4 0 0 1 4,4 4,4 0 0 1 -4,4 4,4 0 0 1 -4,-4 4,4 0 0 1 4,-4 z"
     id="path3"
     inkscape:connector-curvature="0" /><g
     id="g21"
     transform="translate(-3.882439e-4,-8.9209132)" /><g
     id="g23"
     transform="translate(-3.882439e-4,-8.9209132)" /><g
     id="g25"
     transform="translate(-3.882439e-4,-8.9209132)" /><g
     id="g27"
     transform="translate(-3.882439e-4,-8.9209132)" /><g
     id="g29"
     transform="translate(-3.882439e-4,-8.9209132)" /><g
     id="g31"
     transform="translate(-3.882439e-4,-8.9209132)" /><g
     id="g33"
     transform="translate(-3.882439e-4,-8.9209132)" /><g
     id="g35"
     transform="translate(-3.882439e-4,-8.9209132)" /><g
     id="g37"
     transform="translate(-3.882439e-4,-8.9209132)" /><g
     id="g39"
     transform="translate(-3.882439e-4,-8.9209132)" /><g
     id="g41"
     transform="translate(-3.882439e-4,-8.9209132)" /><g
     id="g43"
     transform="translate(-3.882439e-4,-8.9209132)" /><g
     id="g45"
     transform="translate(-3.882439e-4,-8.9209132)" /><g
     id="g47"
     transform="translate(-3.882439e-4,-8.9209132)" /><g
     id="g49"
     transform="translate(-3.882439e-4,-8.9209132)" /></svg>