<?xml version="1.0" encoding="UTF-8" standalone="no"?>
<svg
   xmlns:dc="http://purl.org/dc/elements/1.1/"
   xmlns:cc="http://creativecommons.org/ns#"
   xmlns:rdf="http://www.w3.org/1999/02/22-rdf-syntax-ns#"
   xmlns:svg="http://www.w3.org/2000/svg"
   xmlns="http://www.w3.org/2000/svg"
   xmlns:sodipodi="http://sodipodi.sourceforge.net/DTD/sodipodi-0.dtd"
   xmlns:inkscape="http://www.inkscape.org/namespaces/inkscape"
   viewBox="0 0 26.365133 24.814011"
   height="24.814011"
   width="26.365133"
   version="1.1"
   id="svg2"
   inkscape:version="0.91 r13725"
   sodipodi:docname="karting.svg">
  <sodipodi:namedview
     pagecolor="#ffffff"
     bordercolor="#666666"
     borderopacity="1"
     objecttolerance="10"
     gridtolerance="10"
     guidetolerance="10"
     inkscape:pageopacity="0"
     inkscape:pageshadow="2"
     inkscape:window-width="640"
     inkscape:window-height="480"
     id="namedview6"
     showgrid="false"
     inkscape:zoom="9.510756"
     inkscape:cx="13.182567"
     inkscape:cy="12.407005"
     inkscape:window-x="90"
     inkscape:window-y="48"
     inkscape:window-maximized="0"
     inkscape:current-layer="svg2" />
  <metadata
     id="metadata8">
    <rdf:RDF>
      <cc:Work
         rdf:about="">
        <dc:format>image/svg+xml</dc:format>
        <dc:type
           rdf:resource="http://purl.org/dc/dcmitype/StillImage" />
        <dc:title />
      </cc:Work>
    </rdf:RDF>
  </metadata>
  <defs
     id="defs6" />
  <path
     id="path3338"
     d="M 5.6077822,24.64525 C 5.2365322,24.567269 4.3010188,24.491344 3.5288636,24.476525 2.1327578,24.449734 2.1226098,24.446786 1.7053087,23.946953 1.2140686,23.358559 0.74362621,21.955915 0.44775721,20.19751 c -0.2195789,-1.304999 -0.1467119,-1.945862 0.2741194,-2.410875 0.1987251,-0.21959 0.165692,-0.484419 -0.3014592,-2.416832 -0.3711637,-1.535352 -0.4844812,-2.258993 -0.3873621,-2.473681 0.1042729,-0.230503 0.4753659,-0.384353 1.54350219,-0.639915 0.7734236,-0.185049 1.6087247,-0.336288 1.8562247,-0.336086 0.8384902,6.9e-4 1.0848607,-0.140074 1.1706657,-0.668828 0.044401,-0.273608 0.2486175,-0.757174 0.4538154,-1.07459 C 5.5256524,9.4521637 5.6652638,8.7953017 5.4636044,8.2648974 5.3188253,7.8840997 5.3700286,7.7870536 6.1436579,6.9759841 L 6.9802789,6.0988744 7.0262407,4.3242291 C 7.0806786,2.2223019 7.3146196,1.5060988 8.1920902,0.75501663 9.6763292,-0.51543668 12.08415,-0.13266607 13.057655,1.528494 c 0.478967,0.8172955 0.638048,2.4459052 0.354403,3.6282657 l -0.183165,0.7635169 0.839444,0.7672049 c 0.461696,0.4219627 0.839445,0.890172 0.839445,1.0404651 0,0.1502931 0.275434,0.5090214 0.612075,0.7971738 0.555606,0.4755783 1.262763,1.3090503 1.370343,1.6151186 0.02342,0.06663 0.544267,-0.01088 1.157437,-0.1722543 1.336642,-0.351769 1.690508,-0.362972 2.254403,-0.07137 0.470196,0.2431473 1.355742,1.8258573 1.355742,2.4230753 0,0.500318 0.764319,0.851092 1.945201,0.892724 0.916217,0.0323 1.000565,0.06676 1.515876,0.619196 0.829532,0.889304 1.232717,2.092584 1.245783,3.717974 0.01316,1.635997 -0.234715,2.217825 -1.112182,2.610678 -0.321986,0.144157 -0.719649,0.432739 -0.883698,0.641293 -0.356927,0.453759 -1.929882,1.295568 -3.402549,1.820964 -4.336454,1.547096 -12.5026195,2.622594 -15.3584308,2.022731 z m 3.15,-1.0316 C 6.6952025,23.504097 4.492216,23.160604 3.9331166,22.861384 3.4814622,22.619665 3.2922407,22.703539 3.577672,23.018936 c 0.2617585,0.289241 0.8394501,0.527562 1.5801102,0.65186 0.20625,0.03461 1.59,0.06191 3.075,0.06066 L 10.932782,23.729156 8.7577822,23.61365 Z M 1.6554196,22.418839 C 1.5150154,21.758836 1.4145467,21.53078 1.3405315,21.704071 c -0.059783,0.139968 0.00739,0.646218 0.1492632,1.125 0.3298608,1.113153 0.434541,0.853873 0.1656249,-0.410232 z m 13.0192484,0.70466 0.591887,-0.215444 -0.864177,-0.179403 c -0.485801,-0.100851 -1.616625,-0.157437 -2.582697,-0.129236 -1.43417,0.04187 -1.674538,0.01807 -1.452709,-0.143847 0.146195,-0.106708 0.417685,-0.23215 0.60331,-0.278761 0.185625,-0.04661 0.3375,-0.137937 0.3375,-0.202949 0,-0.152313 -2.4340508,-0.517128 -2.7133308,-0.406674 -0.1164178,0.04604 0.05833,0.09577 0.388331,0.110508 1.5168328,0.06774 1.0965128,0.222956 -0.6293003,0.232394 -1.8010183,0.0099 -2.6538638,0.13657 -3.7116861,0.551511 l -0.4409863,0.172981 0.7313058,0.186558 c 0.4022182,0.102606 1.3260309,0.270732 2.0529171,0.373611 l 1.321611,0.187055 0.4130698,-0.386486 c 0.399348,-0.373647 1.250214,-0.870733 1.4904398,-0.870733 0.0645,0 -0.139899,0.17475 -0.4542158,0.388335 -0.314317,0.213583 -0.539094,0.420726 -0.499504,0.460315 0.03959,0.03959 0.462237,-1.5e-4 0.9392138,-0.08833 0.949543,-0.175533 3.323683,-0.186741 4.037135,-0.01906 0.263041,0.06182 -0.360156,0.116538 -1.5,0.1317 -1.124817,0.01496 -2.330854,0.119869 -2.8499998,0.247909 -0.879867,0.217007 -0.842957,0.220536 1.6499998,0.157731 1.69376,-0.04267 2.748744,-0.136582 3.141886,-0.279684 z M 2.0371599,22.312084 c -0.043461,-0.226875 -0.1079684,-0.325898 -0.1433487,-0.220052 -0.063802,0.190876 0.050335,0.632552 0.1634624,0.632552 0.032399,0 0.023348,-0.185625 -0.020114,-0.4125 z m 2.8956223,-0.264996 c 0.5775,-0.200618 0.9449815,-0.366501 0.8166258,-0.368631 -0.2681334,-0.0045 -2.0916258,0.592648 -2.0916258,0.684897 0,0.106851 0.1993642,0.0574 1.275,-0.316266 z m 15.5471918,-0.96969 c 0.359045,-0.162924 0.766949,-0.297708 0.906455,-0.29952 0.409654,-0.0053 0.470281,-0.293939 0.09349,-0.445054 -0.190926,-0.07657 -0.245887,-0.143087 -0.122137,-0.147807 0.12375,-0.0047 0.418341,0.09225 0.654646,0.215491 0.576498,0.300665 0.603867,0.295761 1.453475,-0.26044 0.693625,-0.454086 0.718966,-0.492383 0.403494,-0.609746 -0.362334,-0.134797 -1.916769,-0.0018 -2.482688,0.212367 -0.197406,0.07472 -0.311266,0.07467 -0.26505,-1.09e-4 0.148352,-0.240036 1.480676,-0.487056 2.439504,-0.452295 1.108013,0.04017 1.374867,-0.08286 0.487496,-0.22476 -1.083911,-0.173325 -3.112482,0.345543 -3.965877,1.014393 -0.285714,0.223929 -0.270063,0.235353 0.328647,0.239896 0.873955,0.0066 0.896317,0.185666 0.07051,0.564512 -0.387402,0.177724 -0.973196,0.569371 -1.301763,0.870328 l -0.597394,0.547196 0.622192,-0.464114 c 0.342206,-0.255261 0.915956,-0.597414 1.275,-0.760338 z m -0.238134,0.696587 c 0.490017,-0.19283 1.160942,-0.494456 1.490942,-0.670281 l 0.6,-0.319683 -0.525,0.08826 c -0.659555,0.110879 -2.189574,0.773759 -2.41619,1.046815 -0.224464,0.270461 -0.191499,0.264837 0.850248,-0.145107 z m -4.921558,-0.0528 c -0.144375,-0.03773 -0.380625,-0.03773 -0.525,0 -0.144375,0.03773 -0.02625,0.0686 0.2625,0.0686 0.28875,0 0.406875,-0.03087 0.2625,-0.0686 z m 1.277854,0.005 c -0.101554,-0.04109 -0.304054,-0.04359 -0.45,-0.0056 -0.145945,0.03803 -0.06285,0.07165 0.184646,0.07471 0.2475,0.0031 0.366909,-0.02806 0.265354,-0.06915 z M 6.9202822,21.571184 c -0.144375,-0.03773 -0.380625,-0.03773 -0.525,0 -0.144375,0.03773 -0.02625,0.0686 0.2625,0.0686 0.28875,0 0.406875,-0.03087 0.2625,-0.0686 z m 7.4968758,0.01278 c -0.04984,-0.04984 -0.17922,-0.05517 -0.287501,-0.01184 -0.119659,0.04788 -0.08412,0.08343 0.09063,0.09062 0.158124,0.0065 0.246718,-0.02894 0.196875,-0.07878 z m 2.618001,-0.03928 c -0.143585,-0.09105 -0.07181,-0.177428 0.262499,-0.315902 0.253068,-0.104823 0.460124,-0.259309 0.460124,-0.3433 0,-0.08399 -0.206399,-0.488154 -0.458664,-0.898137 -0.252267,-0.409985 -0.428262,-0.77583 -0.391101,-0.81299 0.03716,-0.03716 0.282262,0.307691 0.544673,0.766335 0.456482,0.797848 0.808879,1.198395 0.436726,0.4964 -0.687609,-1.297044 -0.86264,-1.455936 -1.458453,-1.323977 -0.0285,0.0063 0.157703,0.382727 0.413783,0.836477 0.256081,0.45375 0.442717,0.825 0.414746,0.825 -0.02797,0 -0.271892,-0.30779 -0.54205,-0.683979 -0.452949,-0.63072 -0.511328,-0.665759 -0.749739,-0.45 -0.142199,0.12869 -0.405103,0.233979 -0.584232,0.233979 -0.424215,0 -0.411573,0.09321 0.122067,0.9 0.332496,0.502687 0.571654,0.698677 0.936856,0.767754 0.734748,0.138973 0.808701,0.139264 0.592765,0.0023 z M 1.6019571,20.879299 c 0.069259,-0.182832 0.046833,-0.235955 -0.069308,-0.164177 -0.1226925,0.07583 -0.1436678,-0.03968 -0.073491,-0.404709 0.074023,-0.385039 0.058558,-0.455419 -0.062808,-0.285823 -0.1205166,0.168409 -0.1379277,0.07409 -0.069225,-0.375 0.070627,-0.461675 0.053127,-0.548129 -0.075909,-0.375 -0.1343411,0.180246 -0.1513221,0.149023 -0.085371,-0.156965 0.045279,-0.210081 0.031506,-0.571989 -0.030607,-0.80424 -0.089494,-0.33463 -0.14626619,-0.379885 -0.27352899,-0.218035 -0.088327,0.112332 -0.1973984,0.354675 -0.2423801,0.538539 -0.1043514,0.426541 0.2528583,1.691704 0.39083239,1.384248 0.053941,-0.120201 0.061719,0.05145 0.017284,0.381453 -0.061738,0.458497 -0.041957,0.546936 0.083875,0.375 0.125614,-0.171639 0.1403836,-0.102507 0.062277,0.291502 -0.088855,0.448226 -0.074077,0.487883 0.1117918,0.3 0.1177998,-0.119076 0.2602563,-0.338133 0.3165701,-0.486793 z m 10.5614229,0.1993 C 11.9596,20.538724 11.614475,20.348 11.701423,20.823313 c 0.04025,0.220053 0.0062,0.191983 -0.104478,-0.08622 -0.142598,-0.358311 -0.246267,-0.412232 -0.789163,-0.410453 -0.34375,0.0012 -0.781027,0.04384 -0.9717258,0.09491 -0.315756,0.08457 -0.288959,0.119541 0.2999998,0.39156 0.702522,0.324471 1.7426,0.685427 2.021196,0.70145 0.131304,0.0076 0.13282,-0.100311 0.0061,-0.435956 z m -2.093098,-0.553357 c 0.103125,-0.04161 0.271875,-0.04161 0.375,0 0.103125,0.04161 0.01875,0.07566 -0.1875,0.07566 -0.20625,0 -0.2906248,-0.03405 -0.1875,-0.07566 z m 5.150041,0.06184 c -0.491649,-0.775 -0.674278,-0.945645 -1.053639,-0.984502 -0.284284,-0.02912 -0.458902,-0.131589 -0.458902,-0.269296 0,-0.166103 -0.123229,-0.203428 -0.4875,-0.147659 -0.268125,0.04105 -0.92625,0.108474 -1.4625,0.149831 -1.254572,0.09675 -0.526072,-0.160847 0.8625,-0.304985 1.044387,-0.108411 1.14072,-0.2529 0.593089,-0.88956 L 12.86896,17.74051 11.675871,18.001659 c -0.656199,0.143631 -1.6873988,0.466477 -2.2915548,0.717436 -0.9212513,0.382677 -1.0547551,0.480752 -0.8275234,0.607917 0.1490184,0.08339 0.6874974,0.156339 1.1966204,0.162099 0.5091228,0.0058 0.8978368,0.05554 0.8638078,0.110616 -0.100482,0.162641 2.076308,0.220517 2.553429,0.06789 0.386114,-0.123513 0.479104,-0.08853 0.786754,0.295948 0.373523,0.466805 0.460257,0.746631 0.177202,0.571694 -0.108157,-0.06685 -0.132423,-0.04109 -0.06464,0.06859 0.0597,0.09659 0.168502,0.138566 0.241788,0.09327 0.07328,-0.04529 0.239104,0.122355 0.368486,0.372552 0.182602,0.35311 0.335904,0.454913 0.685033,0.454913 l 0.449785,0 -0.594735,-0.9375 z M 2.2602493,21.046459 c -0.047884,-0.11966 -0.083427,-0.08412 -0.090625,0.09063 -0.00651,0.158123 0.028939,0.246718 0.078783,0.196874 0.049844,-0.04984 0.055173,-0.179219 0.011843,-0.2875 z m 10.9975327,0.178125 c -0.12375,-0.07997 -0.2925,-0.145406 -0.375,-0.145406 -0.0825,0 -0.04875,0.06543 0.075,0.145406 0.12375,0.07997 0.2925,0.145405 0.375,0.145405 0.0825,0 0.04875,-0.06543 -0.075,-0.145405 z m 1.218613,-0.190001 c -0.148143,-0.147039 -0.165372,-0.12981 -0.08397,0.08397 0.05633,0.147933 0.140204,0.231183 0.186387,0.185 0.04618,-0.04618 9.6e-5,-0.167219 -0.102416,-0.26897 z M 2.4600791,20.587084 c 0.00156,-0.127341 0.053862,-0.11531 0.1630119,0.0375 0.129101,0.180741 0.1461542,0.158569 0.086692,-0.112707 -0.040713,-0.185739 -0.022688,-0.305981 0.040054,-0.267204 0.062742,0.03878 0.1939746,-0.104852 0.2916273,-0.319176 0.097653,-0.214325 0.219623,-0.347609 0.2710453,-0.296186 0.051422,0.05142 0.1725384,-0.05798 0.2691469,-0.243117 0.096609,-0.185136 0.2559914,-0.31924 0.3541839,-0.298012 0.098193,0.02123 0.2441061,-0.133874 0.3242523,-0.344675 0.2132566,-0.560908 -0.1699916,-1.419718 -0.6321565,-1.41658 -0.4141705,0.0028 -2.0491019,0.376605 -2.1682144,0.495717 -0.1597906,0.15979 0.5993493,2.95194 0.8025845,2.95194 0.1075117,0 0.1965096,-0.08437 0.1977729,-0.1875 z M 12.807782,20.71795 c 0,-0.03115 -0.118125,-0.149272 -0.2625,-0.2625 -0.237908,-0.18658 -0.243214,-0.181275 -0.05663,0.05663 0.195952,0.249866 0.31913,0.329326 0.31913,0.20587 z m 6.75,-0.924991 c 0,0.221533 0.03926,0.235776 0.225,0.08162 0.27166,-0.225459 0.301497,-0.511726 0.0375,-0.359803 -0.108936,0.06269 -0.135125,0.05069 -0.0625,-0.02865 0.06875,-0.0751 0.170712,-0.13655 0.226583,-0.13655 0.169213,0 1.813602,-1.384816 1.736245,-1.462173 -0.03958,-0.03958 0.279224,-0.199282 0.708452,-0.354895 0.429226,-0.155612 0.805872,-0.360449 0.836988,-0.455192 0.03111,-0.09474 -0.251432,-0.289888 -0.627882,-0.433656 l -0.684456,-0.261396 -0.785465,0.503814 c -0.432006,0.277098 -1.348618,0.792869 -2.036917,1.146156 -1.450914,0.74472 -1.232859,0.813755 0.875059,0.277035 0.782984,-0.199363 1.452359,-0.333727 1.487501,-0.298587 0.03514,0.03514 -0.01466,0.06389 -0.110675,0.06389 -0.09601,0 -0.456348,0.253125 -0.800745,0.5625 -0.586249,0.526634 -0.607822,0.534267 -0.338338,0.119718 0.272985,-0.419934 0.273679,-0.43735 0.01347,-0.3375 -0.150899,0.0579 -0.336341,0.105282 -0.412094,0.105282 -0.07575,0 -0.138022,0.118125 -0.138376,0.2625 -3e-4,0.144375 -0.272874,0.63375 -0.605598,1.0875 -0.577476,0.787527 -0.580853,0.798315 -0.07436,0.237509 0.390834,-0.432718 0.530608,-0.516787 0.530608,-0.319123 z m -7.425,0.531625 c -0.05099,-0.0825 -0.173096,-0.148967 -0.271353,-0.147704 -0.107342,0.0014 -0.08884,0.06034 0.04635,0.147704 0.288168,0.186229 0.340096,0.186229 0.225,0 z M 3.6102493,19.996459 c -0.047884,-0.11966 -0.083427,-0.08412 -0.090625,0.09063 -0.00651,0.158123 0.028939,0.246718 0.078783,0.196874 0.049844,-0.04985 0.055173,-0.179219 0.011842,-0.2875 z m 7.2475327,0.07881 C 9.4820152,19.979672 7.9002877,19.686076 6.7756381,19.31755 6.1087482,19.099024 5.50501,18.983321 5.3506381,19.044458 c -0.1783956,0.07065 0.3583695,0.269758 1.6071441,0.596145 1.4608256,0.381812 2.173206,0.489125 3.2249998,0.485816 0.7425,-0.0023 1.04625,-0.02535 0.675,-0.05115 z m 1.3875,-0.150027 c -0.103125,-0.04161 -0.271875,-0.04161 -0.375,0 -0.103125,0.04161 -0.01875,0.07566 0.1875,0.07566 0.20625,0 0.290625,-0.03405 0.1875,-0.07566 z m 2.760451,-0.930977 c -0.384051,-0.528796 -0.588093,-0.684954 -0.854475,-0.653947 -0.466054,0.05425 -0.470109,0.0631 -0.279478,0.609942 0.102076,0.292818 0.267505,0.474324 0.432309,0.474324 0.146827,0 0.345207,0.09428 0.440841,0.209515 0.09563,0.115234 0.306958,0.174715 0.469608,0.132181 0.275646,-0.07208 0.261468,-0.124502 -0.208805,-0.772015 z m 0.952049,0.434595 c 0,-0.287051 -0.736378,-1.804276 -0.875697,-1.804276 -0.360167,0 -0.299115,0.537987 0.138429,1.21984 0.438679,0.683622 0.737268,0.920316 0.737268,0.584436 z M 18.7802,19.19895 c -0.09413,-0.206598 -0.199404,-0.347379 -0.233937,-0.312847 -0.07006,0.07006 0.234071,0.688481 0.33858,0.688481 0.03658,0 -0.01052,-0.169035 -0.104643,-0.375635 z m -1.574203,-0.376662 c 0.382185,-0.0013 0.551471,-0.05008 0.433796,-0.124745 -0.134686,-0.08546 -0.01524,-0.2026 0.395396,-0.387771 0.32361,-0.145927 0.882955,-0.467203 1.242988,-0.713944 l 0.654605,-0.448622 -1.95,0.08424 c -1.0725,0.04633 -2.099816,0.127327 -2.282924,0.179986 -0.321627,0.0925 -0.324796,0.111737 -0.09342,0.566948 0.131725,0.259161 0.256788,0.491449 0.277917,0.516195 0.02113,0.02474 0.449164,-0.09338 0.95119,-0.2625 0.502028,-0.169121 0.999281,-0.302561 1.105008,-0.296532 0.105728,0.006 -0.153255,0.133896 -0.575515,0.284151 -1.122794,0.399529 -1.407636,0.579349 -1.312097,0.828322 0.07343,0.191348 0.111779,0.191061 0.305129,-0.0023 0.1233,-0.1233 0.498463,-0.222162 0.84793,-0.223441 z m 2.110736,0.215027 c 0.132066,-0.344158 0.121369,-0.362731 -0.208951,-0.362731 -0.165,0 -0.3,0.02823 -0.3,0.06273 0,0.182963 0.197838,0.537269 0.3,0.537269 0.06485,0 0.158875,-0.10677 0.208951,-0.237269 z M 8.7720402,18.804148 c 1.103296,-0.474626 1.012968,-0.477288 -1.364258,-0.04022 -0.4492377,0.08259 -0.4817073,0.114062 -0.225,0.218048 0.4855924,0.196704 0.800565,0.16146 1.589258,-0.177827 z M 8.3234817,18.159392 c 0.2997485,-0.252221 0.7820665,-0.423678 1.5591535,-0.554251 0.7578738,-0.127346 1.1251468,-0.255845 1.1251468,-0.39366 0,-0.12122 -0.07354,-0.159153 -0.180445,-0.09308 -0.362777,0.224208 -2.2074408,0.467527 -2.2637498,0.298597 -0.033626,-0.100875 -0.2035621,-0.06286 -0.4547469,0.10172 -0.4759235,0.311836 -0.5030698,0.200008 -0.1085241,-0.44706 0.3798339,-0.622941 0.806121,-0.838248 1.524083,-0.769781 0.320861,0.0306 0.5833828,0.02982 0.5833828,-0.0017 0,-0.241227 -1.0503758,-1.296168 -1.5385078,-1.545195 -0.5682481,-0.289899 -0.5985356,-0.291798 -0.5075334,-0.03183 0.085372,0.243889 0.074637,0.248602 -0.09109,0.04 -0.2859794,-0.359962 -0.8338734,-0.455977 -0.9125714,-0.159921 -0.045423,0.170877 -0.070829,0.145668 -0.082897,-0.08226 -0.021768,-0.411146 -0.3062051,-0.602765 -0.486982,-0.328071 -0.1704198,0.258957 -0.00643,1.597165 0.2454706,2.003086 0.1036316,0.166998 0.2339378,0.49902 0.2895695,0.737828 0.1413057,0.606579 0.3373238,0.342342 0.6043982,-0.814742 l 0.2237665,-0.969488 -0.098949,0.975 c -0.054422,0.53625 -0.1044998,1.189638 -0.1112838,1.451973 -0.00678,0.262333 -0.062072,0.526708 -0.1228624,0.587499 -0.1862699,0.18627 -0.1232814,0.360528 0.1303189,0.360528 0.1324656,0 0.4361494,-0.164337 0.6748529,-0.365192 z M 8.1925932,16.274584 c 0.106723,-0.170891 0.3493498,-0.299759 0.563771,-0.299439 0.363734,6e-4 0.359868,0.01065 -0.114707,0.3 -0.6149591,0.37494 -0.6835149,0.374854 -0.449064,-6e-4 z m -1.3611268,-1.05 c 0,-0.20625 0.034046,-0.290625 0.075658,-0.1875 0.041612,0.103125 0.041612,0.271875 0,0.375 -0.041612,0.103125 -0.075658,0.01875 -0.075658,-0.1875 z m 7.0999316,2.37429 c 0.659255,-0.518571 0.969323,-1.382663 0.97309,-2.71179 0.0037,-1.30047 -0.07062,-1.370548 -0.83504,-0.7875 -0.270408,0.20625 -0.614278,0.375363 -0.764158,0.375807 -0.473488,0.0014 -2.551776,-0.907072 -2.85611,-1.24848 -0.276916,-0.310649 -0.7093198,-2.121075 -0.5631048,-2.357656 0.03762,-0.06086 0.3141808,-0.156772 0.6145878,-0.213129 0.346252,-0.06496 0.493855,-0.154806 0.403214,-0.245447 -0.210818,-0.210818 -1.1926788,0.243441 -1.2844138,0.594235 -0.04203,0.160723 -0.01979,0.585274 0.04942,0.943447 0.207295,1.07279 0.14736,1.318027 -0.159157,0.651223 l -0.275808,-0.6 0.07091,0.6 c 0.180502,1.527336 0.356638,1.928353 1.2603198,2.869444 0.64218,0.668765 0.935341,1.110915 1.069733,1.613391 0.202799,0.758243 0.513462,0.906227 0.66179,0.315243 0.14851,-0.591712 -0.06784,-1.63908 -0.526346,-2.548072 -0.351296,-0.696449 -0.371031,-0.789507 -0.120172,-0.566652 0.413479,0.367321 0.980053,1.626124 1.098496,2.440617 0.08684,0.597177 0.409793,1.166355 0.676407,1.192114 0.05075,0.0049 0.278604,-0.137655 0.506345,-0.316795 z m 10.42448,-1.17429 c 0.02088,0.374371 0.02115,0.374434 0.156578,0.0375 0.07461,-0.185625 0.176133,-0.3375 0.2256,-0.3375 0.04947,0 0.04722,0.151875 -0.005,0.3375 -0.07432,0.264202 -0.06072,0.288634 0.0626,0.1125 0.08664,-0.12375 0.158563,-0.16611 0.159826,-0.09413 0.0012,0.07198 0.09698,0.05229 0.212709,-0.04376 0.161499,-0.134032 0.225279,-0.130032 0.274359,0.01721 0.03517,0.105509 0.07372,-0.06832 0.08568,-0.386289 0.03095,-0.82323 -0.612524,-2.117212 -1.198121,-2.409346 -0.412818,-0.205941 -0.566133,-0.206881 -1.420614,-0.0087 -1.051887,0.243948 -1.627993,0.557007 -1.875256,1.019022 -0.13311,0.248717 -0.120588,0.285857 0.07152,0.212139 0.33984,-0.130409 0.953334,0.416836 1.156114,1.03127 0.0967,0.292987 0.210636,0.497876 0.253202,0.455311 0.04257,-0.04257 0.0048,-0.285651 -0.08394,-0.540188 -0.08873,-0.254536 -0.09915,-0.424363 -0.02315,-0.377395 0.076,0.04697 0.182055,0.319281 0.235682,0.605138 0.05363,0.285856 0.160549,0.519738 0.237606,0.519738 0.184912,0 -3e-4,-1.000281 -0.291717,-1.575 -0.20561,-0.405573 -0.205223,-0.430998 0.0039,-0.257526 0.127623,0.105859 0.316929,0.409609 0.420681,0.675 0.467889,1.196828 0.636858,1.480256 0.76345,1.280602 0.09245,-0.145812 0.12921,-0.11892 0.139302,0.101924 0.0094,0.205062 0.07769,0.133858 0.215885,-0.225 0.182665,-0.474335 0.204195,-0.488811 0.223096,-0.15 z m -0.736254,-0.0875 c 0.0072,-0.174742 0.04274,-0.210285 0.09063,-0.09062 0.04333,0.10828 0.038,0.237655 -0.01184,0.2875 -0.04985,0.04984 -0.0853,-0.03875 -0.07878,-0.196875 z m 0.300001,0 c 0.0072,-0.174742 0.04274,-0.210285 0.09062,-0.09062 0.04333,0.10828 0.038,0.237655 -0.01183,0.2875 -0.04985,0.04984 -0.0853,-0.03875 -0.07878,-0.196875 z m -0.939968,-2.414967 c 0.108281,-0.04333 0.237656,-0.038 0.287501,0.01184 0.04984,0.04985 -0.03875,0.0853 -0.196875,0.07878 -0.174743,-0.0072 -0.210285,-0.04274 -0.09063,-0.09062 z m 0.75,-0.15 c 0.108281,-0.04333 0.237656,-0.038 0.287501,0.01184 0.04984,0.04984 -0.03875,0.0853 -0.196875,0.07878 -0.174743,-0.0072 -0.210285,-0.04274 -0.09063,-0.09062 z m -6.341034,2.943016 c 0.133546,-0.216083 -0.361766,-0.740549 -0.699381,-0.740549 -0.316149,0 -0.224192,0.408684 0.159244,0.70773 0.292599,0.228201 0.414795,0.235626 0.540137,0.03282 z M 5.0463584,14.699584 c -0.015362,-0.241032 -0.00413,-0.248403 0.057151,-0.0375 0.078472,0.270075 0.4467768,0.342409 0.752067,0.147703 0.2134768,-0.13615 0.4286473,-1.470984 0.2540784,-1.576203 -0.06978,-0.04206 -0.3588735,5.85e-4 -0.6424308,0.09476 -0.4173283,0.138614 -0.5811058,0.321285 -0.8595763,0.95874 -0.2797923,0.640482 -0.3025576,0.7875 -0.1219413,0.7875 0.2523408,0 0.2976242,0.235603 0.072076,0.375 -0.0825,0.05099 -0.1497477,0.206847 -0.1494393,0.346353 3.45e-4,0.156012 0.1269259,0.05156 0.3288481,-0.271353 0.1805582,-0.28875 0.3196835,-0.66 0.3091674,-0.825 z m 12.7762156,0.9375 c -0.204795,-0.655619 -0.783267,-1.875311 -0.933433,-1.96812 -0.171809,-0.106183 -0.481359,0.66744 -0.481359,1.203003 0,0.292353 0.07746,0.352617 0.453216,0.352617 0.337867,0 0.496702,0.09544 0.624076,0.375 0.21263,0.466669 0.480869,0.496473 0.3375,0.0375 z m 2.839244,-0.636959 c 0.119176,-0.310567 -1.088631,-0.943172 -1.262778,-0.661396 -0.07783,0.125929 0.01853,0.261456 0.282847,0.3978 0.220493,0.113739 0.46502,0.270081 0.543395,0.347427 0.202953,0.200287 0.337419,0.174465 0.436536,-0.08383 z m 0.995964,-1.160847 c 0.157296,-0.04559 0.08959,-0.138558 -0.225,-0.30895 -0.2475,-0.134053 -0.3825,-0.244043 -0.3,-0.244423 0.0825,-3.75e-4 0.31875,0.09578 0.525,0.213679 0.47799,0.273244 0.55,0.274108 0.55,0.0066 0,-0.120121 -0.05485,-0.184499 -0.1219,-0.143063 -0.06704,0.04144 -0.265705,-0.0016 -0.441466,-0.09569 -0.250809,-0.134229 -0.461255,-0.116916 -0.978101,0.08047 -0.74898,0.286038 -0.795756,0.392442 -0.321033,0.730266 0.301097,0.214267 0.305141,0.231303 0.0375,0.157935 -0.22174,-0.06078 -0.202174,-0.02357 0.075,0.142665 0.348977,0.209296 0.395819,0.200643 0.675,-0.124683 0.165,-0.192273 0.40125,-0.378935 0.525,-0.414804 z M 8.6705142,14.083536 c 0.323745,-0.124233 0.298104,-0.398795 -0.05801,-0.621194 C 8.1374294,13.165655 7.8182918,12.407116 7.926304,11.831362 8.0297512,11.279941 7.9092212,11.208598 7.360421,11.49641 c -0.3252673,0.170583 -0.3255706,0.169497 -0.041891,-0.15 0.1571615,-0.177004 0.4417865,-0.321826 0.6324999,-0.321826 0.5186258,0 1.4014279,-0.951908 1.4305189,-1.5425003 C 9.4394862,8.3058688 9.2986112,7.8141228 8.8444312,7.6071847 8.6406332,7.5143276 8.1959919,7.187291 7.8563409,6.8804368 L 7.2387934,6.3225197 6.5377615,7.0235518 c -0.6227544,0.6227544 -0.663029,0.7010319 -0.3606878,0.7010319 0.6078092,0 1.3540713,0.4133874 1.5980789,0.885246 l 0.2372958,0.45888 -0.5482651,-0.372063 C 6.8616565,8.2877608 6.3320129,8.2191559 6.0840916,8.5178827 5.8280188,8.8264317 5.5775446,10.728168 5.6813821,11.575472 c 0.100071,0.81657 0.7424067,1.968205 1.3256355,2.376714 0.3221895,0.225671 1.2307489,0.29741 1.6634966,0.131349 z m 4.8716258,-0.04611 c 0.123118,-0.07796 0.168508,-0.239016 0.11019,-0.390992 -0.07684,-0.200243 -0.205943,-0.237071 -0.573421,-0.163575 -0.630139,0.126027 -0.702956,0.224353 -0.354722,0.478989 0.334616,0.244677 0.523354,0.262116 0.817953,0.07558 z m 4.665642,-0.281327 c 0,-0.588976 -0.482977,-2.071433 -0.817937,-2.510588 l -0.355261,-0.465772 1.357986,-0.33119 c 0.746892,-0.182155 1.385308,-0.303869 1.418701,-0.270476 0.03339,0.03339 -0.415582,0.177437 -0.997723,0.320098 -0.582141,0.142661 -1.088418,0.307892 -1.12506,0.36718 -0.03664,0.05929 0.14119,0.33532 0.395182,0.613405 0.253992,0.278086 0.588431,0.779034 0.743199,1.113219 0.154767,0.334185 0.242181,0.438859 0.194252,0.232609 -0.201779,-0.868307 -0.199076,-0.952641 0.01683,-0.525 l 0.227193,0.45 -0.07681,-0.525 -0.07681,-0.525 0.230372,0.45 c 0.172702,0.337349 0.213298,0.365512 0.162169,0.1125 -0.03751,-0.185625 -0.007,-0.3375 0.06775,-0.3375 0.07478,0 0.140701,0.118125 0.1465,0.2625 0.009,0.224466 0.02922,0.219032 0.139457,-0.0375 0.110235,-0.256532 0.130441,-0.261966 0.139456,-0.0375 0.0058,0.144375 0.07593,0.2625 0.155837,0.2625 0.07991,0 0.105955,-0.102509 0.05788,-0.227797 -0.07262,-0.189246 -0.02105,-0.202567 0.304709,-0.07871 0.215667,0.082 0.393154,0.10013 0.394417,0.0403 0.0012,-0.05983 0.07286,-0.0075 0.159102,0.116213 0.281873,0.404463 -0.01917,-0.780094 -0.350377,-1.378693 -0.539403,-0.9748663 -1.192157,-1.0529113 -3.226179,-0.385734 -0.748635,0.245559 -0.959031,0.383575 -1.032803,0.677504 -0.105204,0.41917 0.17013,0.677629 0.584517,0.54869 0.194367,-0.06048 0.237657,-0.0191 0.168522,0.161056 -0.05473,0.142624 0.03521,0.378947 0.218445,0.573994 0.171312,0.182354 0.35723,0.617669 0.413148,0.967367 0.10006,0.625692 0.363336,0.891867 0.363336,0.367325 z M 1.2171573,13.633959 c -0.049844,-0.04984 -0.1792189,-0.05517 -0.28750009,-0.01184 -0.11966,0.04788 -0.084116,0.08343 0.090625,0.09062 0.1581248,0.0065 0.2467186,-0.02894 0.196875,-0.07878 z M 12.357782,13.489147 c 0,-0.14508 -0.360767,-0.813805 -0.436577,-0.809248 -0.04863,0.0029 -0.249743,0.09473 -0.446912,0.204011 l -0.35849,0.198695 0.309858,0.309858 c 0.196711,0.196711 0.423469,0.280147 0.620989,0.228495 0.171123,-0.04475 0.311132,-0.104065 0.311132,-0.131811 z m -10.5406247,-0.0052 c -0.049844,-0.04984 -0.1792188,-0.05517 -0.2875001,-0.01184 -0.1196599,0.04788 -0.084116,0.08343 0.090625,0.09062 0.1581249,0.0065 0.2467186,-0.02894 0.196875,-0.07878 z m 0.6,-0.15 c -0.049844,-0.04984 -0.1792188,-0.05517 -0.2875001,-0.01184 -0.1196599,0.04788 -0.084116,0.08343 0.090625,0.09063 0.1581249,0.0065 0.2467186,-0.02894 0.196875,-0.07878 z m 6.6406249,-0.209363 c 0,-0.205059 -0.106809,-0.306465 -0.3375,-0.320427 l -0.3375,-0.02043 0.3375,-0.065 c 0.185625,-0.03575 0.3375,-0.151246 0.3375,-0.256651 0,-0.105404 -0.151875,-0.264891 -0.3375,-0.354415 l -0.3375,-0.16277 0.328647,-0.01015 c 0.461902,-0.01427 0.595192,-0.314355 0.256769,-0.578087 -0.280094,-0.218277 -0.280046,-0.220555 0.0026,-0.122164 0.265219,0.09233 0.528695,-0.103496 0.534695,-0.397401 0.0046,-0.225297 -0.707812,-0.105201 -0.94758,0.15974 -0.4663434,0.515304 -0.5956881,1.154545 -0.3354421,1.657805 0.1895322,0.366514 0.5773581,0.738578 0.7978191,0.765394 0.020617,0.0025 0.037492,-0.130444 0.037492,-0.295444 z m 5.2229318,-0.124249 c 0.04192,-0.284864 -0.02256,-0.325751 -0.513646,-0.325751 l -0.56158,0 0.355001,0.377882 c 0.40731,0.433562 0.651357,0.415898 0.720225,-0.05213 z M 3.0171572,13.183959 c -0.049844,-0.04984 -0.1792188,-0.05517 -0.2875,-0.01184 -0.11966,0.04788 -0.084116,0.08343 0.090625,0.09063 0.1581249,0.0065 0.2467187,-0.02894 0.196875,-0.07878 z m 7.9021488,-0.187571 c 0.04358,-0.07051 -0.08744,-0.284774 -0.291147,-0.476147 l -0.370377,-0.347951 0,0.376147 c 0,0.206881 0.045,0.421147 0.1,0.476147 0.140769,0.140769 0.46723,0.124376 0.561524,-0.0282 z m 1.633199,-0.566526 c 0.184631,-0.184632 -0.2104,-0.655278 -0.550001,-0.655278 -0.487207,0 -0.585094,0.156767 -0.296801,0.475327 0.246778,0.272687 0.665157,0.361595 0.846801,0.179951 z m 2.355277,-0.196425 c 0,-0.376808 -0.132839,-0.449206 -0.644683,-0.351361 -0.398314,0.07614 -0.405998,0.09313 -0.163397,0.361204 0.338251,0.373764 0.80808,0.36804 0.80808,-0.0098 z M 15.761429,11.5845 c -0.08364,-0.623582 -0.46014,-1.159402 -0.662576,-0.942952 -0.06384,0.06826 -0.03549,0.152977 0.063,0.188263 0.09849,0.03529 0.141894,0.161044 0.09645,0.279464 -0.04544,0.11842 -0.01422,0.215309 0.06938,0.215309 0.0836,0 0.113942,0.145555 0.06742,0.323456 -0.05419,0.207238 -0.02723,0.288006 0.07505,0.224793 0.102296,-0.06322 0.129236,0.0176 0.075,0.225 -0.06186,0.236543 -0.03329,0.291927 0.106131,0.20576 0.126989,-0.07848 0.16381,-0.318904 0.110133,-0.719093 z M 4.5171572,12.133959 c -0.049844,-0.04984 -0.1792188,-0.05517 -0.2875,-0.01184 -0.11966,0.04788 -0.084116,0.08343 0.090625,0.09062 0.1581249,0.0065 0.2467187,-0.02894 0.196875,-0.07878 z m 6.6316958,-0.306581 c 0.03634,-0.03296 -0.03116,-0.152877 -0.15,-0.26647 -0.153389,-0.146619 -0.318946,-0.166905 -0.570693,-0.06993 -0.295883,0.113978 -0.323432,0.174186 -0.166322,0.363492 0.165572,0.199502 0.653664,0.184594 0.887015,-0.02709 z m 3.845095,-0.740891 c -0.118265,-0.322797 -0.219783,-0.468778 -0.225597,-0.324403 -0.0068,0.167573 -0.132618,0.264225 -0.348069,0.26727 -0.329049,0.0047 -0.33021,0.01029 -0.04635,0.224989 0.209017,0.158094 0.320759,0.172315 0.396101,0.05041 0.06583,-0.106518 0.144117,-0.04639 0.210041,0.161315 0.0578,0.182118 0.132949,0.303268 0.166995,0.269222 0.03404,-0.03405 -0.03486,-0.326007 -0.153126,-0.648804 z m -1.961166,0.238097 c -0.261525,-0.288982 -1.125,-0.427138 -1.125,-0.18 0,0.26728 0.389211,0.48 0.878248,0.48 0.508747,0 0.513271,-0.0055 0.246752,-0.3 z m -1.65844,-0.242517 c 0.371786,-0.142668 0.0045,-0.479469 -0.431875,-0.396047 -0.234671,0.04486 -0.334924,0.143703 -0.282999,0.279017 0.08643,0.225239 0.329282,0.264995 0.714874,0.11703 z m 4.499479,-0.414783 c -0.05421,-0.215985 -0.164369,-0.3927 -0.2448,-0.3927 -0.08043,0 -0.106908,0.08438 -0.05884,0.1875 0.04807,0.103125 0.129769,0.308302 0.181551,0.455949 0.140102,0.399484 0.235899,0.202725 0.122085,-0.250749 z m -2.335243,0.04735 c -0.113188,-0.17047 -0.256421,-0.30547 -0.318296,-0.3 -0.06187,0.0055 -0.245382,0.0099 -0.407792,0.0099 -0.441818,0 -0.211814,0.419882 0.270487,0.493787 0.219893,0.03369 0.458663,0.07138 0.5306,0.08374 0.07194,0.01236 0.03819,-0.117 -0.075,-0.28747 z M 10.022397,9.9828317 c 0.788272,-0.62644 1.458494,-0.807642 2.667347,-0.721149 0.678401,0.04854 0.988486,0.02335 0.892617,-0.07253 -0.241501,-0.2415 -2.024613,-0.320836 -2.640744,-0.117494 -0.565127,0.186518 -1.5838348,0.9702173 -1.5838348,1.2184643 0,0.201166 0.05933,0.173735 0.6646148,-0.3072863 z m 1.54476,0.2011223 c -0.04984,-0.04984 -0.179219,-0.05517 -0.2875,-0.01184 -0.11966,0.04788 -0.08412,0.08343 0.09062,0.09063 0.158125,0.0065 0.246719,-0.02894 0.196875,-0.07878 z m 3.788328,-0.6389523 c 0.0033,-0.513725 -0.618633,-1.573862 -0.782508,-1.3337927 -0.08297,0.1215473 -0.11292,0.04459 -0.08443,-0.2169391 C 14.521621,7.6907532 14.383811,7.4364795 13.939803,6.9817748 13.613705,6.6478198 13.2739,6.3745837 13.184681,6.3745837 c -0.08922,0 -0.283036,0.2045309 -0.430704,0.4545129 -0.267022,0.4520318 -0.26597,0.4583134 0.192659,1.1507167 0.25363,0.3829121 0.461146,0.7489644 0.461146,0.8134494 0,0.06448 0.238286,0.23032 0.529524,0.368521 0.291237,0.138201 0.679362,0.434821 0.8625,0.659154 0.358321,0.4389263 0.55167,0.3429163 0.555679,-0.275931 z m -2.885203,0.4761833 c -0.144375,-0.03773 -0.380625,-0.03773 -0.525,0 -0.144375,0.03773 -0.02625,0.0686 0.2625,0.0686 0.28875,0 0.406875,-0.03087 0.2625,-0.0686 z m 1.5,0 c -0.144375,-0.03773 -0.380625,-0.03773 -0.525,0 -0.144375,0.03773 -0.02625,0.0686 0.2625,0.0686 0.28875,0 0.406875,-0.03087 0.2625,-0.0686 z M 11.778664,7.5631555 c 0.194765,-0.1712854 0.269743,-0.2685517 0.166618,-0.2161474 -0.103125,0.052404 -0.1875,0.023797 -0.1875,-0.063572 0,-0.1376981 0.180013,-0.2116641 0.455662,-0.1872284 0.04436,0.00393 0.09534,-0.1702056 0.113281,-0.3869742 0.03031,-0.366164 0.01821,-0.374427 -0.170406,-0.1164711 -0.111664,0.1527095 -0.280766,0.2296077 -0.375781,0.1708848 -0.09502,-0.058723 -0.172756,-0.027968 -0.172756,0.068345 0,0.1871925 -0.420087,0.1208071 -1.155885,-0.1826615 C 10.072002,6.4926487 9.6662612,6.4724452 9.5306672,6.6034591 9.4177332,6.7125786 10.026994,7.5603309 10.320812,7.7029014 10.83005,7.9500008 11.401027,7.8952687 11.778664,7.5631555 Z M 10.2369,7.2874957 C 10.042135,7.1295971 9.9246842,6.95832 9.9758982,6.9068796 10.121922,6.7602092 10.857782,7.1496999 10.857782,7.373661 c 0,0.2793597 -0.205128,0.2508922 -0.620882,-0.086165 z M 9.0572862,7.2370837 c -0.446724,-0.268125 -1.0438427,-0.79125 -1.3269303,-1.1625 -0.3770022,-0.4944125 -0.4844952,-0.5746736 -0.4017876,-0.3 0.161052,0.5348563 0.7959309,1.1707823 1.5792139,1.5818182 0.992352,0.520747 1.088315,0.4441591 0.149504,-0.1193182 z M 8.8130462,5.2731325 C 8.0918695,3.5886143 8.1949941,2.6128335 9.0460612,3.0683107 9.7599962,3.450397 9.2322212,2.0101388 8.4601288,1.4693443 8.1436073,1.2476442 8.1073123,1.2509065 7.9510454,1.5151042 7.0701986,3.0043358 7.2982379,4.8865823 8.5373273,6.3542998 8.9538312,6.8476543 8.9661812,6.851561 9.0859302,6.5278486 9.1726002,6.2935555 9.0927762,5.9265215 8.8130462,5.2731325 Z M 8.201806,5.5870837 C 7.8497891,4.8287665 7.758022,4.4642242 7.7392473,3.7495837 c -0.014486,-0.5513961 0.015668,-0.6705584 0.1138729,-0.45 0.073467,0.165 0.1404673,0.46875 0.1488897,0.675 0.00842,0.20625 0.1144165,0.5060262 0.2355428,0.6661695 0.2695414,0.3563656 0.2856565,0.5832195 0.03273,0.4607362 -0.103125,-0.04994 -0.039831,0.019017 0.1406531,0.1532372 0.1805119,0.1342407 0.2913939,0.339828 0.2464519,0.4569468 C 8.5399285,6.017765 8.3816366,5.9744762 8.201806,5.5870837 Z m 2.861058,-0.126195 c 0.178839,-0.8773542 0.234114,-0.9695797 0.632935,-1.0560578 0.387164,-0.08395 0.365908,-0.096776 -0.186441,-0.1124999 l -0.623425,-0.017747 -0.107714,0.7875 c -0.05924,0.433125 -0.163446,0.9348769 -0.231562,1.1150043 -0.08228,0.2175694 -0.06343,0.3484825 0.05614,0.39 0.21993,0.076365 0.218136,0.080679 0.460069,-1.1061993 z M 9.3883062,5.3255321 c -0.140538,-0.2469784 -0.310133,-0.4494784 -0.376877,-0.45 -0.138511,-0.00108 -0.01159,0.2534459 0.317417,0.6365516 0.329436,0.383605 0.348988,0.3222606 0.05946,-0.1865516 z M 9.0577822,4.3495837 c 0,-0.12375 -0.0675,-0.225 -0.15,-0.225 -0.0825,0 -0.15,-0.10125 -0.15,-0.225 0,-0.12375 0.10125,-0.225 0.225,-0.225 0.12375,0 0.225,0.065381 0.225,0.1452922 0,0.079911 0.09516,0.1087769 0.211461,0.064147 0.116304,-0.04463 0.426327,0.029966 0.6889398,0.1657682 0.262613,0.1358025 0.50712,0.217272 0.543348,0.1810434 0.03623,-0.036229 -0.13988,-0.1510949 -0.391354,-0.2552586 C 9.8553862,3.807906 9.8313082,3.7654536 10.050214,3.6053857 c 0.227347,-0.1662403 0.227542,-0.180802 0.0024,-0.180802 -0.1346658,0 -0.2448468,0.057983 -0.2448468,0.1288521 0,0.070869 -0.199148,0.025869 -0.442551,-0.1 C 8.8501752,3.18709 8.7034782,3.165365 8.8327822,3.3745837 c 0.05099,0.0825 0.02685,0.15 -0.05365,0.15 -0.08049,0 -0.180398,-0.084375 -0.2220099,-0.1875 -0.144191,-0.357348 -0.098656,0.4697691 0.046947,0.852735 0.159066,0.4183737 0.453713,0.5221273 0.453713,0.159765 z M 12.45091,3.8809279 c 0.48,-0.2277749 0.507245,-0.2791023 0.418011,-0.7875 C 12.733433,2.321503 12.30611,1.3982245 11.929559,1.0638355 11.752582,0.90667413 11.607782,0.82243023 11.607782,0.87662693 c 0,0.054197 -0.252125,-0.036592 -0.560279,-0.2017518 -0.553367,-0.296587 -1.2932978,-0.3854376 -1.7500898,-0.21015 -0.180527,0.069275 -0.0476,0.2689329 0.57421,0.86250007 0.8130888,0.7761515 1.1334248,1.4490495 1.1353218,2.3848585 7.35e-4,0.361078 0.05878,0.4125 0.465668,0.4125 0.255657,0 0.69589,-0.1096451 0.978297,-0.2436558 z m 0.01538,-1.1813442 c -0.05613,-0.33 -0.276571,-0.87 -0.489881,-1.2 L 11.588576,0.89958373 11.972829,1.3495837 c 0.432595,0.5066148 0.735438,1.2905115 0.651463,1.6862865 -0.03078,0.1450425 -0.101874,-0.00629 -0.157999,-0.3362865 z m -1.608511,1.041423 c 0,-0.6439893 -0.38648,-1.6138296 -0.845904,-2.1227265 L 9.4984692,1.0495837 9.9740622,1.7508215 c 0.3263178,0.4811383 0.4985528,0.9401772 0.5487408,1.4625 0.04023,0.4186942 0.13206,0.7612622 0.204063,0.7612622 0.072,0 0.130916,-0.1051097 0.130916,-0.233577 z"
     style="fill:#ffffff" />
</svg>
